<svg width="27" height="27" viewBox="0 0 27 27" fill="none" xmlns="http://www.w3.org/2000/svg">
<path d="M13.9949 2.125C7.71323 2.125 2.61987 7.21836 2.61987 13.5C2.61987 19.7816 7.71323 24.875 13.9949 24.875C20.2765 24.875 25.3699 19.7816 25.3699 13.5C25.3699 7.21836 20.2765 2.125 13.9949 2.125ZM13.9949 22.9453C8.77964 22.9453 4.54956 18.7152 4.54956 13.5C4.54956 8.28476 8.77964 4.05468 13.9949 4.05468C19.2101 4.05468 23.4402 8.28476 23.4402 13.5C23.4402 18.7152 19.2101 22.9453 13.9949 22.9453Z" fill="white"/>
<path d="M18.4306 16.7144L14.8099 14.0967V7.8125C14.8099 7.70078 14.7185 7.60937 14.6068 7.60937H13.3855C13.2738 7.60937 13.1824 7.70078 13.1824 7.8125V14.8051C13.1824 14.8711 13.2128 14.932 13.2662 14.9701L17.4658 18.0322C17.5572 18.0982 17.6841 18.0779 17.7501 17.9891L18.4763 16.9988C18.5423 16.9049 18.522 16.7779 18.4306 16.7144Z" fill="white"/>
</svg>
