<svg width="84" height="37" viewBox="0 0 84 37" fill="none" xmlns="http://www.w3.org/2000/svg">
<path d="M4.88 2.92397C4.88 4.31949 3.788 5.44998 2.44 5.44998C1.092 5.44998 0 4.31949 0 2.92397C0 1.52845 1.092 0.397949 2.44 0.397949C3.788 0.397949 4.88 1.52845 4.88 2.92397Z" fill="white" fill-opacity="0.25"/>
<path d="M4.88 23.2968C4.88 24.6913 3.788 25.8228 2.44 25.8228C1.092 25.8228 0 24.6923 0 23.2968C0 21.9012 1.092 20.7708 2.44 20.7708C3.788 20.7708 4.88 21.9023 4.88 23.2968Z" fill="white" fill-opacity="0.25"/>
<path d="M16.6749 5.44998C18.0224 5.44998 19.1149 4.31905 19.1149 2.92397C19.1149 1.52889 18.0224 0.397949 16.6749 0.397949C15.3273 0.397949 14.2349 1.52889 14.2349 2.92397C14.2349 4.31905 15.3273 5.44998 16.6749 5.44998Z" fill="white" fill-opacity="0.25"/>
<path d="M45.1439 5.44998C46.4914 5.44998 47.5839 4.31905 47.5839 2.92397C47.5839 1.52889 46.4914 0.397949 45.1439 0.397949C43.7963 0.397949 42.7039 1.52889 42.7039 2.92397C42.7039 4.31905 43.7963 5.44998 45.1439 5.44998Z" fill="white" fill-opacity="0.25"/>
<path d="M59.378 5.44998C60.7256 5.44998 61.818 4.31905 61.818 2.92397C61.818 1.52889 60.7256 0.397949 59.378 0.397949C58.0304 0.397949 56.938 1.52889 56.938 2.92397C56.938 4.31905 58.0304 5.44998 59.378 5.44998Z" fill="white" fill-opacity="0.25"/>
<path d="M76.0519 2.92397C76.0519 4.31949 74.9599 5.44998 73.6119 5.44998C72.2649 5.44998 71.1719 4.31949 71.1719 2.92397C71.1719 1.52845 72.2639 0.397949 73.6119 0.397949C74.9599 0.397949 76.0519 1.52845 76.0519 2.92397Z" fill="white" fill-opacity="0.25"/>
<path d="M23.7921 16.0115C25.1396 16.0115 26.2321 14.8806 26.2321 13.4855C26.2321 12.0904 25.1396 10.9595 23.7921 10.9595C22.4445 10.9595 21.3521 12.0904 21.3521 13.4855C21.3521 14.8806 22.4445 16.0115 23.7921 16.0115Z" fill="white" fill-opacity="0.25"/>
<path d="M40.4659 13.4855C40.4659 14.88 39.3739 16.0115 38.0259 16.0115C36.6779 16.0115 35.5859 14.881 35.5859 13.4855C35.5859 12.09 36.6779 10.9595 38.0259 10.9595C39.3739 10.9595 40.4659 12.09 40.4659 13.4855Z" fill="white" fill-opacity="0.25"/>
<path d="M52.2608 16.0115C53.6084 16.0115 54.7008 14.8806 54.7008 13.4855C54.7008 12.0904 53.6084 10.9595 52.2608 10.9595C50.9132 10.9595 49.8208 12.0904 49.8208 13.4855C49.8208 14.8806 50.9132 16.0115 52.2608 16.0115Z" fill="white" fill-opacity="0.25"/>
<path d="M66.4949 16.0115C67.8425 16.0115 68.9349 14.8806 68.9349 13.4855C68.9349 12.0904 67.8425 10.9595 66.4949 10.9595C65.1474 10.9595 64.0549 12.0904 64.0549 13.4855C64.0549 14.8806 65.1474 16.0115 66.4949 16.0115Z" fill="white" fill-opacity="0.25"/>
<path d="M80.73 16.0115C82.0776 16.0115 83.17 14.8806 83.17 13.4855C83.17 12.0904 82.0776 10.9595 80.73 10.9595C79.3825 10.9595 78.29 12.0904 78.29 13.4855C78.29 14.8806 79.3825 16.0115 80.73 16.0115Z" fill="white" fill-opacity="0.25"/>
<path d="M16.6749 25.8228C18.0224 25.8228 19.1149 24.6918 19.1149 23.2968C19.1149 21.9017 18.0224 20.7708 16.6749 20.7708C15.3273 20.7708 14.2349 21.9017 14.2349 23.2968C14.2349 24.6918 15.3273 25.8228 16.6749 25.8228Z" fill="white" fill-opacity="0.25"/>
<path d="M30.909 25.8228C32.2566 25.8228 33.349 24.6918 33.349 23.2968C33.349 21.9017 32.2566 20.7708 30.909 20.7708C29.5614 20.7708 28.469 21.9017 28.469 23.2968C28.469 24.6918 29.5614 25.8228 30.909 25.8228Z" fill="white" fill-opacity="0.25"/>
<path d="M45.1439 25.8228C46.4914 25.8228 47.5839 24.6918 47.5839 23.2968C47.5839 21.9017 46.4914 20.7708 45.1439 20.7708C43.7963 20.7708 42.7039 21.9017 42.7039 23.2968C42.7039 24.6918 43.7963 25.8228 45.1439 25.8228Z" fill="white" fill-opacity="0.25"/>
<path d="M59.378 25.8228C60.7256 25.8228 61.818 24.6918 61.818 23.2968C61.818 21.9017 60.7256 20.7708 59.378 20.7708C58.0304 20.7708 56.938 21.9017 56.938 23.2968C56.938 24.6918 58.0304 25.8228 59.378 25.8228Z" fill="white" fill-opacity="0.25"/>
<path d="M76.0519 23.2968C76.0519 24.6913 74.9599 25.8228 73.6119 25.8228C72.2649 25.8228 71.1719 24.6923 71.1719 23.2968C71.1719 21.9012 72.2639 20.7708 73.6119 20.7708C74.9599 20.7708 76.0519 21.9023 76.0519 23.2968Z" fill="white" fill-opacity="0.25"/>
<path d="M9.55792 36.3843C10.9055 36.3843 11.9979 35.2534 11.9979 33.8583C11.9979 32.4632 10.9055 31.3323 9.55792 31.3323C8.21035 31.3323 7.11792 32.4632 7.11792 33.8583C7.11792 35.2534 8.21035 36.3843 9.55792 36.3843Z" fill="white" fill-opacity="0.25"/>
<path d="M40.4659 33.8583C40.4659 35.2538 39.3739 36.3843 38.0259 36.3843C36.6779 36.3843 35.5859 35.2538 35.5859 33.8583C35.5859 32.4628 36.6779 31.3323 38.0259 31.3323C39.3739 31.3323 40.4659 32.4638 40.4659 33.8583Z" fill="white" fill-opacity="0.25"/>
<path d="M52.2608 36.3843C53.6084 36.3843 54.7008 35.2534 54.7008 33.8583C54.7008 32.4632 53.6084 31.3323 52.2608 31.3323C50.9132 31.3323 49.8208 32.4632 49.8208 33.8583C49.8208 35.2534 50.9132 36.3843 52.2608 36.3843Z" fill="white" fill-opacity="0.25"/>
<path d="M66.4949 36.3843C67.8425 36.3843 68.9349 35.2534 68.9349 33.8583C68.9349 32.4632 67.8425 31.3323 66.4949 31.3323C65.1474 31.3323 64.0549 32.4632 64.0549 33.8583C64.0549 35.2534 65.1474 36.3843 66.4949 36.3843Z" fill="white" fill-opacity="0.25"/>
</svg>
