<svg width="389" height="64" viewBox="0 0 389 64" fill="none" xmlns="http://www.w3.org/2000/svg">
<path d="M352.451 20.9159C352.451 16.0625 356.385 12.1279 361.238 12.1279H379.699V20.9159H352.451Z" fill="#29F2D1"/>
<path d="M388.188 37.3202C388.188 32.4668 388.188 33.5107 388.188 28.5322H352.451V37.3202H388.188Z" fill="#8C9BB1"/>
<path d="M352.45 53.7257C352.45 48.8721 356.385 44.9375 361.238 44.9375H388.188V53.7257H352.45Z" fill="#8C9BB1"/>
<path d="M379.446 12.1612C384.412 12.1612 388.438 16.0972 388.438 20.9521V37.3623H379.446V12.1612Z" fill="#8C9BB1"/>
<path d="M379.446 28.3702C384.412 28.3702 388.438 32.3062 388.438 37.1611V53.5713H379.446V28.3702Z" fill="#29F2D1"/>
<path d="M307.339 20.9159C307.339 16.0624 311.274 12.1279 316.127 12.1279H343.077V20.9159H307.339Z" fill="#8C9BB1"/>
<path d="M334.288 37.3201C339.142 37.3201 343.076 33.3856 343.076 28.5322V12.128L334.288 12.1279V37.3201Z" fill="#0CD1EB"/>
<path d="M343.077 28.5323C343.077 33.3858 339.142 37.3203 334.289 37.3203H307.339V28.5323H343.077Z" fill="#8C9BB1"/>
<path d="M316.127 53.7244C311.273 53.7244 307.338 49.7898 307.338 44.9366V28.5322H316.127V53.7244Z" fill="#0CD1EB"/>
<path d="M343.126 53.7467C343.126 48.8936 339.191 44.959 334.338 44.959H326.257V53.7467H343.126Z" fill="#8C9BB1"/>
<path d="M307.388 44.9593C307.388 49.8125 311.323 53.7471 316.177 53.7471H331.956V44.9593H307.388Z" fill="#8C9BB1"/>
<path d="M300.043 19.3198V9.0896C297.843 8.66334 296.084 9.72899 295.864 11.0078V21.0248C297.603 20.8652 298.621 20.9731 300.043 19.3198Z" fill="#29F2D1"/>
<path d="M271.422 26.4688V43.565C267.362 43.565 264.584 41.4279 264.584 39.932V32.8798C264.584 28.8195 266.507 26.4688 271.422 26.4688Z" fill="#29F2D1"/>
<path d="M281.554 36.5996V53.8225C285.689 53.8225 288.519 51.6696 288.519 50.1626V43.0582C288.519 38.9678 286.56 36.5996 281.554 36.5996Z" fill="#29F2D1"/>
<path d="M286.872 32.9273H264.584C264.584 28.6216 266.727 26.4688 269.942 26.4688H281.729C285.158 26.4688 286.581 29.3695 286.872 32.9273Z" fill="#8C9BB1"/>
<path d="M281.553 36.5996H271.422V43.5647H281.553V36.5996Z" fill="#8C9BB1"/>
<path d="M281.553 53.8235V47.2383H264.837C264.837 50.5622 266.793 53.6353 270.262 53.8235H281.553Z" fill="#8C9BB1"/>
<path d="M239.7 33.3741V26.3457H250.781C254.2 26.3457 257.176 28.7518 257.176 31.4746V42.6188L250.211 35.2104V33.3741H239.7Z" fill="#0CD1EB"/>
<path d="M261.925 46.9883H256.923C256.093 49.406 253.63 52.4535 249.768 54.08H256.67C259.899 53.6897 261.735 51.2173 261.925 46.9883Z" fill="#0CD1EB"/>
<path fill-rule="evenodd" clip-rule="evenodd" d="M247.742 54.3363C253.127 54.3363 257.493 49.9706 257.493 44.5852C257.493 39.1997 253.127 34.834 247.742 34.834C242.356 34.834 237.991 39.1997 237.991 44.5852C237.991 49.9706 242.356 54.3363 247.742 54.3363ZM247.742 49.1431C250.259 49.1431 252.301 47.102 252.301 44.5841C252.301 42.0663 250.259 40.0251 247.742 40.0251C245.224 40.0251 243.183 42.0663 243.183 44.5841C243.183 47.102 245.224 49.1431 247.742 49.1431Z" fill="#8C9BB1"/>
<path d="M235.141 9.18614C223.406 9.16503 199.935 9.18614 199.302 9.18614C199.302 13.8085 201.961 18.3674 205.824 18.6207H213.612V53.9529C219.691 53.9529 223.173 50.4703 223.173 46.3546V18.6207H235.141V9.18614Z" fill="#8C9BB1"/>
<path d="M186.891 18.1121C186.701 12.35 190.943 9.37402 196.579 9.37402L196.515 45.7193C196.515 51.2914 192.146 53.8875 186.891 53.8875V18.1121Z" fill="#0CD1EB"/>
<path d="M170.492 15.5173C172.075 9.94521 177.647 7.98231 183.725 9.94521L171.885 47.4936C170.351 52.1263 169.165 53.8722 166.376 55.2185L161.057 45.2141L170.492 15.5173Z" fill="#0CD1EB"/>
<path d="M152.746 15.9526C151.006 10.4275 145.381 8.62293 139.36 10.7569L152.257 47.9555C153.586 51.7358 154.812 54.268 157.638 55.5349C161.037 56.5729 164.097 56.3581 166.376 55.155L152.746 15.9526Z" fill="#29F2D1"/>
<path d="M117.113 33.3741V26.3457H128.194C131.613 26.3457 134.589 28.7518 134.589 31.4746V42.6188L127.624 35.2104V33.3741H117.113Z" fill="#0CD1EB"/>
<path d="M139.338 46.9883H134.336C133.506 49.406 131.044 52.4535 127.181 54.08H134.083C137.312 53.6897 139.149 51.2173 139.338 46.9883Z" fill="#0CD1EB"/>
<path fill-rule="evenodd" clip-rule="evenodd" d="M125.154 54.3363C130.54 54.3363 134.906 49.9706 134.906 44.5852C134.906 39.1997 130.54 34.834 125.154 34.834C119.769 34.834 115.403 39.1997 115.403 44.5852C115.403 49.9706 119.769 54.3363 125.154 54.3363ZM125.155 49.1431C127.673 49.1431 129.714 47.102 129.714 44.5841C129.714 42.0663 127.673 40.0251 125.155 40.0251C122.637 40.0251 120.596 42.0663 120.596 44.5841C120.596 47.102 122.637 49.1431 125.155 49.1431Z" fill="#8C9BB1"/>
<path d="M93.7524 31.786C93.6333 28.196 96.2935 26.3418 99.8272 26.3418L99.7875 48.9865C99.7875 52.4582 97.0479 54.0757 93.7524 54.0757V31.786Z" fill="#0CD1EB"/>
<circle cx="106.792" cy="32.1678" r="5.95202" fill="#29F2D1"/>
<path d="M78.2983 31.7912L88.1761 31.7918C89.6325 31.7912 91.1522 29.195 91.1522 26.5989L78.2987 26.599L78.2983 31.7912Z" fill="#29F2D1"/>
<path fill-rule="evenodd" clip-rule="evenodd" d="M90.4554 38.5017C90.4554 45.0761 85.1257 50.4057 78.5513 50.4057C78.4959 50.4057 78.4405 50.4053 78.3852 50.4046H65.8877C65.8877 48.1043 67.0398 45.741 68.6505 45.1131C67.3852 43.2219 66.6473 40.948 66.6473 38.5017C66.6473 31.9273 71.9769 26.5977 78.5513 26.5977C85.1257 26.5977 90.4554 31.9273 90.4554 38.5017ZM78.5518 44.2001C81.6991 44.2001 84.2505 41.6487 84.2505 38.5014C84.2505 35.3541 81.6991 32.8026 78.5518 32.8026C75.4044 32.8026 72.853 35.3541 72.853 38.5014C72.853 41.6487 75.4044 44.2001 78.5518 44.2001Z" fill="#8C9BB1"/>
<path d="M86.1498 51.3564H65.9509C65.9509 54.3325 67.5339 56.8019 70.5099 56.8019H90.9621C90.9621 53.9525 89.5057 51.3564 86.1498 51.3564Z" fill="#0CD1EB"/>
<path d="M90.9623 57.624H73.1062C73.1062 60.7267 75.0553 63.0695 78.1361 63.0695H86.8755C89.4533 63.0695 90.9623 60.9799 90.9623 57.624Z" fill="#29F2D1"/>
<path fill-rule="evenodd" clip-rule="evenodd" d="M19.3865 48.2191L16.7522 48.3256C22.1545 59.2778 32.8273 62.5182 40.543 52.791L42.1296 50.4741C47.4657 41.1479 48.3575 27.4833 42.8979 16.1911L41.4983 13.8953C39.1651 10.2442 37.4232 8.74892 33.8022 6.7741C33.7116 6.32734 33.5432 5.88845 33.2922 5.47673C32.1327 3.57483 29.651 2.97297 27.7491 4.13244C25.8472 5.2919 25.2453 7.77363 26.4048 9.67552C27.5643 11.5774 30.046 12.1793 31.9479 11.0198C32.7035 10.5592 33.2539 9.88985 33.5702 9.13109L33.5705 9.13132C36.1776 10.7065 37.3424 11.8287 39.1279 14.0658L40.5275 16.3616C46.3975 29.1281 44.9247 42.0223 39.4287 50.4712L37.6208 52.5481C30.9518 59.6878 23.3599 55.8437 19.3865 48.2191ZM31.3246 6.6785C30.8277 5.86341 29.7641 5.60547 28.949 6.10238C28.1339 6.59929 27.876 7.66289 28.3729 8.47799C28.8698 9.29308 29.9334 9.55102 30.7485 9.05411C31.5636 8.5572 31.8215 7.4936 31.3246 6.6785Z" fill="#8C9BB1"/>
<path fill-rule="evenodd" clip-rule="evenodd" d="M24.3508 14.1231L25.6171 11.8436C13.5864 10.7672 5.35495 18.1122 9.59737 29.6363L10.7371 32.1691C15.8659 41.477 26.9468 49.2653 39.2941 50.4684H41.9536C46.2384 50.3777 48.3981 49.6764 51.9304 47.635C52.354 47.7882 52.811 47.8717 53.2874 47.8717C55.4906 47.8717 57.2766 46.0858 57.2766 43.8826C57.2766 41.6795 55.4906 39.8935 53.2874 39.8935C51.0843 39.8935 49.2983 41.6795 49.2983 43.8826C49.2983 44.7582 49.5804 45.568 50.0587 46.2258L50.0584 46.226C47.3859 47.6168 45.8385 48.0227 43.03 48.3788H40.3705C26.5669 46.7633 16.4358 38.8809 12.1301 29.8896L11.307 27.2935C8.71086 17.9856 15.8659 13.5532 24.3508 14.1231ZM53.2871 45.5922C54.2313 45.5922 54.9967 44.8268 54.9967 43.8826C54.9967 42.9384 54.2313 42.173 53.2871 42.173C52.3429 42.173 51.5775 42.9384 51.5775 43.8826C51.5775 44.8268 52.3429 45.5922 53.2871 45.5922Z" fill="#0CD1EB"/>
<path fill-rule="evenodd" clip-rule="evenodd" d="M49.0506 34.2388L50.3757 36.4618C57.2936 26.7993 55.0921 16.1148 43.0896 13.9051L40.3484 13.5953C29.8059 13.2545 17.6018 18.7285 10.4176 28.5958L9.09251 30.8517C7.03527 34.5322 6.56109 36.7177 6.55294 40.7433C6.21022 41.0255 5.91071 41.3711 5.67321 41.7755C4.57552 43.6443 5.2182 46.0594 7.1087 47.1699C8.99918 48.2803 11.4216 47.6655 12.5193 45.7967C13.617 43.9278 12.9743 41.5127 11.0838 40.4023C10.3325 39.961 9.49726 39.7922 8.69451 39.8662L8.69469 39.865C8.8328 36.897 9.25551 35.3798 10.3492 32.818L11.6743 30.562C19.9381 19.6672 31.7496 15.0464 41.6103 15.9259L44.2482 16.5361C53.5287 19.0253 53.7671 27.3286 49.0506 34.2388ZM7.62896 42.9241C7.15852 43.725 7.43395 44.7601 8.24416 45.236C9.05437 45.7119 10.0925 45.4484 10.563 44.6475C11.0334 43.8465 10.758 42.8115 9.94778 42.3356C9.13757 41.8597 8.0994 42.1232 7.62896 42.9241Z" fill="#29F2D1"/>
</svg>
