<svg width="980" height="186" viewBox="0 0 980 186" fill="none" xmlns="http://www.w3.org/2000/svg">
<g filter="url(#filter0_d_657_882)">
<path d="M871.459 58.6074C871.459 46.7172 881.099 37.0781 892.988 37.0781H938.214V58.6074H871.459Z" fill="url(#paint0_linear_657_882)"/>
<path d="M871.46 98.7949C871.46 86.9047 871.459 89.4622 871.46 77.2656H959.011V98.7949H871.46Z" fill="url(#paint1_linear_657_882)"/>
<path d="M871.457 138.985C871.457 127.094 881.097 117.455 892.986 117.455H959.009V138.985H871.457Z" fill="url(#paint2_linear_657_882)"/>
<path d="M937.593 37.1565C949.758 37.1565 959.62 46.7991 959.62 58.6929V98.8955H937.593V37.1565Z" fill="url(#paint3_linear_657_882)"/>
<path d="M937.593 76.8691C949.758 76.8691 959.62 86.5117 959.62 98.4055V138.608H937.593V76.8691Z" fill="url(#paint4_linear_657_882)"/>
<path d="M760.952 58.6066C760.952 46.7163 770.591 37.0774 782.481 37.0774H848.504V58.6066H760.952Z" fill="url(#paint5_linear_657_882)"/>
<path d="M826.973 98.7946C838.863 98.7946 848.503 89.1557 848.503 77.2654V37.0775L826.973 37.0774V98.7946Z" fill="url(#paint6_linear_657_882)"/>
<path d="M848.503 77.2646C848.503 89.1549 838.863 98.7939 826.973 98.7939H760.95V77.2646H848.503Z" fill="url(#paint7_linear_657_882)"/>
<path d="M782.482 138.982C770.591 138.982 760.952 129.343 760.952 117.454V77.2651H782.482V138.982Z" fill="url(#paint8_linear_657_882)"/>
<path d="M848.624 139.041C848.624 127.151 838.985 117.512 827.095 117.512H807.299V139.041H848.624Z" fill="url(#paint9_linear_657_882)"/>
<path d="M761.08 117.51C761.08 129.399 770.719 139.039 782.61 139.039H821.268V117.51H761.08Z" fill="url(#paint10_linear_657_882)"/>
<path d="M743.085 54.6989V29.6365C737.697 28.5922 733.386 31.2029 732.847 34.3357V58.876C737.109 58.4849 739.601 58.7494 743.085 54.6989Z" fill="url(#paint11_linear_657_882)"/>
<path d="M672.965 72.2158V114.099C663.018 114.099 656.212 108.864 656.212 105.199V87.922C656.212 77.9748 660.924 72.2158 672.965 72.2158Z" fill="url(#paint12_linear_657_882)"/>
<path d="M697.785 97.0361V139.23C707.917 139.23 714.849 133.955 714.849 130.264V112.859C714.849 102.838 710.05 97.0361 697.785 97.0361Z" fill="url(#paint13_linear_657_882)"/>
<path d="M710.815 88.0384H656.212C656.212 77.49 661.462 72.2158 669.337 72.2158H698.214C706.615 72.2158 710.102 79.3222 710.815 88.0384Z" fill="url(#paint14_linear_657_882)"/>
<path d="M697.778 97.0361H672.958V114.1H697.778V97.0361Z" fill="url(#paint15_linear_657_882)"/>
<path d="M697.775 139.228V123.095H656.823C656.823 131.238 661.613 138.767 670.113 139.228H697.775Z" fill="url(#paint16_linear_657_882)"/>
<path d="M595.255 89.1254V71.9067H622.402C630.779 71.9067 638.069 77.8014 638.069 84.4717V111.773L621.006 93.624V89.1254H595.255Z" fill="url(#paint17_linear_657_882)"/>
<path d="M649.694 122.475H637.439C635.406 128.398 629.372 135.864 619.91 139.849H636.818C644.73 138.893 649.228 132.836 649.694 122.475Z" fill="url(#paint18_linear_657_882)"/>
<path fill-rule="evenodd" clip-rule="evenodd" d="M614.946 140.473C628.14 140.473 638.835 129.778 638.835 116.584C638.835 103.391 628.14 92.6953 614.946 92.6953C601.753 92.6953 591.057 103.391 591.057 116.584C591.057 129.778 601.753 140.473 614.946 140.473ZM614.943 127.752C621.111 127.752 626.112 122.751 626.112 116.583C626.112 110.414 621.111 105.414 614.943 105.414C608.774 105.414 603.774 110.414 603.774 116.583C603.774 122.751 608.774 127.752 614.943 127.752Z" fill="url(#paint19_linear_657_882)"/>
<path d="M584.085 29.8682C555.335 29.8165 497.836 29.8682 496.285 29.8682C496.285 41.1922 502.8 52.3611 512.263 52.9816H531.343V139.54C546.235 139.54 554.767 131.009 554.767 120.926V52.9816H584.085V29.8682Z" fill="url(#paint20_linear_657_882)"/>
<path d="M465.875 51.7388C465.41 37.6226 475.803 30.3318 489.609 30.3318L489.454 119.373C489.454 133.023 478.751 139.383 465.875 139.383V51.7388Z" fill="url(#paint21_linear_657_882)"/>
<path d="M425.712 45.3803C429.59 31.7294 443.24 26.9206 458.132 31.7294L429.124 123.717C425.367 135.067 422.462 139.344 415.628 142.643L402.598 118.133L425.712 45.3803Z" fill="url(#paint22_linear_657_882)"/>
<path d="M382.23 46.4471C377.967 32.9113 364.186 28.4903 349.436 33.7182L381.033 124.849C384.287 134.111 387.291 140.314 394.215 143.418C402.541 145.961 410.038 145.435 415.622 142.487L382.23 46.4471Z" fill="url(#paint23_linear_657_882)"/>
<path d="M294.943 89.1254V71.9067H322.089C330.466 71.9067 337.757 77.8014 337.757 84.4717V111.773L320.693 93.624V89.1254H294.943Z" fill="url(#paint24_linear_657_882)"/>
<path d="M349.381 122.475H337.126C335.093 128.398 329.06 135.864 319.597 139.849H336.506C344.417 138.893 348.915 132.836 349.381 122.475Z" fill="url(#paint25_linear_657_882)"/>
<path fill-rule="evenodd" clip-rule="evenodd" d="M314.649 140.473C327.842 140.473 338.538 129.778 338.538 116.584C338.538 103.391 327.842 92.6953 314.649 92.6953C301.455 92.6953 290.76 103.391 290.76 116.584C290.76 129.778 301.455 140.473 314.649 140.473ZM314.645 127.752C320.814 127.752 325.814 122.751 325.814 116.583C325.814 110.414 320.814 105.414 314.645 105.414C308.477 105.414 303.477 110.414 303.477 116.583C303.477 122.751 308.477 127.752 314.645 127.752Z" fill="url(#paint26_linear_657_882)"/>
<path d="M237.705 85.2438C237.413 76.4487 243.931 71.9062 252.588 71.9062L252.49 127.383C252.49 135.888 245.779 139.85 237.705 139.85V85.2438Z" fill="url(#paint27_linear_657_882)"/>
<circle cx="269.65" cy="86.1773" r="14.5816" fill="url(#paint28_linear_657_882)"/>
<path d="M199.84 85.2472L224.04 85.2487C227.607 85.2472 231.33 78.8871 231.33 72.527L199.841 72.5271L199.84 85.2472Z" fill="url(#paint29_linear_657_882)"/>
<path fill-rule="evenodd" clip-rule="evenodd" d="M229.646 101.688C229.646 117.795 216.589 130.851 200.483 130.851L200.43 130.851H169.457C169.457 125.215 172.281 119.423 176.228 117.887C173.128 113.253 171.319 107.682 171.319 101.688C171.319 85.5819 184.376 72.5251 200.483 72.5251C216.589 72.5251 229.646 85.5819 229.646 101.688ZM200.485 115.65C208.195 115.65 214.446 109.4 214.446 101.689C214.446 93.9789 208.195 87.7283 200.485 87.7283C192.774 87.7283 186.524 93.9789 186.524 101.689C186.524 109.4 192.774 115.65 200.485 115.65Z" fill="url(#paint30_linear_657_882)"/>
<path d="M219.079 133.181H169.594C169.594 140.471 173.472 146.521 180.763 146.521H230.868C230.868 139.541 227.3 133.181 219.079 133.181Z" fill="url(#paint31_linear_657_882)"/>
<path d="M230.88 148.538H187.135C187.135 156.139 191.91 161.879 199.457 161.879H220.868C227.183 161.879 230.88 156.76 230.88 148.538Z" fill="url(#paint32_linear_657_882)"/>
<path fill-rule="evenodd" clip-rule="evenodd" d="M55.4939 125.496L49.0403 125.757C62.2751 152.588 88.422 160.527 107.324 136.696L111.211 131.02C124.284 108.173 126.469 74.6963 113.093 47.032L109.665 41.4076C103.949 32.4627 99.681 28.7995 90.8097 23.9613C90.5877 22.867 90.1751 21.7921 89.5603 20.7837C86.7198 16.1244 80.6399 14.6499 75.9806 17.4904C71.3212 20.3309 69.8467 26.4108 72.6873 31.0702C75.5278 35.7295 81.6076 37.204 86.267 34.3635C88.1183 33.2349 89.4668 31.5948 90.2416 29.7357L90.2427 29.7365C96.6298 33.5954 99.4834 36.3448 103.858 41.8252L107.286 47.4497C121.667 78.7257 118.059 110.315 104.594 131.013L100.165 136.101C83.8274 153.593 65.2283 144.175 55.4939 125.496ZM84.751 23.7238C83.5336 21.7269 80.928 21.095 78.9311 22.3124C76.9342 23.5297 76.3023 26.1354 77.5197 28.1323C78.7371 30.1292 81.3427 30.7611 83.3396 29.5437C85.3365 28.3263 85.9684 25.7207 84.751 23.7238Z" fill="url(#paint33_linear_657_882)"/>
<path fill-rule="evenodd" clip-rule="evenodd" d="M67.6601 41.9689L70.7625 36.3845C41.2891 33.7474 21.1231 51.7417 31.5164 79.9741L34.3086 86.179C46.8735 108.982 74.0201 128.062 104.269 131.01H110.784C121.28 130.788 126.571 129.07 135.223 124.07C136.26 124.445 137.379 124.65 138.546 124.65C143.943 124.65 148.318 120.274 148.318 114.877C148.318 109.48 143.943 105.104 138.546 105.104C133.148 105.104 128.773 109.48 128.773 114.877C128.773 117.022 129.464 119.006 130.636 120.618C124.091 124.024 120.3 125.018 113.421 125.891H106.906C73.0892 121.933 48.2696 102.622 37.7213 80.5946L35.7047 74.2345C29.3446 51.4315 46.8735 40.5728 67.6601 41.9689ZM138.564 119.065C140.877 119.065 142.752 117.189 142.752 114.876C142.752 112.563 140.877 110.688 138.564 110.688C136.251 110.688 134.375 112.563 134.375 114.876C134.375 117.189 136.251 119.065 138.564 119.065Z" fill="url(#paint34_linear_657_882)"/>
<path fill-rule="evenodd" clip-rule="evenodd" d="M128.19 91.2462L131.436 96.6925C148.384 73.0206 142.991 46.8451 113.586 41.4317L106.871 40.6728C81.0429 39.8378 51.1448 53.2483 33.5443 77.4219L30.2982 82.9484C25.2594 91.963 24.0971 97.3166 24.0766 107.174C23.2352 107.866 22.5 108.714 21.9171 109.706C19.2279 114.285 20.8024 120.202 25.4339 122.922C30.0653 125.642 35.9998 124.136 38.689 119.558C41.3782 114.979 39.8037 109.063 35.1723 106.342C33.3333 105.262 31.2888 104.848 29.3236 105.029C29.662 97.7582 30.6976 94.0412 33.3769 87.7655L36.6231 82.2388C56.8683 55.5481 85.8049 44.2276 109.962 46.3823L116.424 47.8773C139.161 53.9754 139.745 74.3174 128.19 91.2462ZM26.7116 112.522C25.5591 114.484 26.2338 117.02 28.2187 118.186C30.2036 119.352 32.747 118.706 33.8995 116.744C35.052 114.782 34.3772 112.246 32.3923 111.08C30.4074 109.915 27.8641 110.56 26.7116 112.522Z" fill="url(#paint35_linear_657_882)"/>
</g>
<defs>
<filter id="filter0_d_657_882" x="0.604492" y="0.0449219" width="979.016" height="185.834" filterUnits="userSpaceOnUse" color-interpolation-filters="sRGB">
<feFlood flood-opacity="0" result="BackgroundImageFix"/>
<feColorMatrix in="SourceAlpha" type="matrix" values="0 0 0 0 0 0 0 0 0 0 0 0 0 0 0 0 0 0 127 0" result="hardAlpha"/>
<feOffset dy="4"/>
<feGaussianBlur stdDeviation="10"/>
<feComposite in2="hardAlpha" operator="out"/>
<feColorMatrix type="matrix" values="0 0 0 0 0 0 0 0 0 0 0 0 0 0 0 0 0 0 0.08 0"/>
<feBlend mode="normal" in2="BackgroundImageFix" result="effect1_dropShadow_657_882"/>
<feBlend mode="normal" in="SourceGraphic" in2="effect1_dropShadow_657_882" result="shape"/>
</filter>
<linearGradient id="paint0_linear_657_882" x1="904.837" y1="37.0781" x2="904.837" y2="58.6074" gradientUnits="userSpaceOnUse">
<stop stop-color="white"/>
<stop offset="1" stop-color="#C5B9DD"/>
</linearGradient>
<linearGradient id="paint1_linear_657_882" x1="915.235" y1="77.2656" x2="915.235" y2="98.7949" gradientUnits="userSpaceOnUse">
<stop stop-color="white"/>
<stop offset="1" stop-color="#C5B9DD"/>
</linearGradient>
<linearGradient id="paint2_linear_657_882" x1="915.233" y1="117.455" x2="915.233" y2="138.985" gradientUnits="userSpaceOnUse">
<stop stop-color="white"/>
<stop offset="1" stop-color="#C5B9DD"/>
</linearGradient>
<linearGradient id="paint3_linear_657_882" x1="948.606" y1="98.8955" x2="948.606" y2="37.1565" gradientUnits="userSpaceOnUse">
<stop stop-color="white"/>
<stop offset="1" stop-color="#C5B9DD"/>
</linearGradient>
<linearGradient id="paint4_linear_657_882" x1="948.606" y1="138.608" x2="948.606" y2="76.8691" gradientUnits="userSpaceOnUse">
<stop stop-color="white"/>
<stop offset="1" stop-color="#C5B9DD"/>
</linearGradient>
<linearGradient id="paint5_linear_657_882" x1="804.728" y1="37.0774" x2="804.728" y2="58.6066" gradientUnits="userSpaceOnUse">
<stop stop-color="white"/>
<stop offset="1" stop-color="#C5B9DD"/>
</linearGradient>
<linearGradient id="paint6_linear_657_882" x1="837.738" y1="37.0774" x2="837.738" y2="98.7946" gradientUnits="userSpaceOnUse">
<stop stop-color="white"/>
<stop offset="1" stop-color="#C5B9DD"/>
</linearGradient>
<linearGradient id="paint7_linear_657_882" x1="804.726" y1="98.7939" x2="804.726" y2="77.2646" gradientUnits="userSpaceOnUse">
<stop stop-color="white"/>
<stop offset="1" stop-color="#C5B9DD"/>
</linearGradient>
<linearGradient id="paint8_linear_657_882" x1="771.717" y1="77.2651" x2="771.717" y2="138.982" gradientUnits="userSpaceOnUse">
<stop stop-color="white"/>
<stop offset="1" stop-color="#C5B9DD"/>
</linearGradient>
<linearGradient id="paint9_linear_657_882" x1="827.962" y1="117.512" x2="827.962" y2="139.041" gradientUnits="userSpaceOnUse">
<stop stop-color="white"/>
<stop offset="1" stop-color="#C5B9DD"/>
</linearGradient>
<linearGradient id="paint10_linear_657_882" x1="791.174" y1="139.039" x2="791.174" y2="117.51" gradientUnits="userSpaceOnUse">
<stop stop-color="white"/>
<stop offset="1" stop-color="#C5B9DD"/>
</linearGradient>
<linearGradient id="paint11_linear_657_882" x1="737.966" y1="29.4026" x2="737.966" y2="58.876" gradientUnits="userSpaceOnUse">
<stop stop-color="white"/>
<stop offset="1" stop-color="#C5B9DD"/>
</linearGradient>
<linearGradient id="paint12_linear_657_882" x1="664.588" y1="72.2158" x2="664.588" y2="114.099" gradientUnits="userSpaceOnUse">
<stop stop-color="white"/>
<stop offset="1" stop-color="#C5B9DD"/>
</linearGradient>
<linearGradient id="paint13_linear_657_882" x1="706.317" y1="97.0361" x2="706.317" y2="139.23" gradientUnits="userSpaceOnUse">
<stop stop-color="white"/>
<stop offset="1" stop-color="#C5B9DD"/>
</linearGradient>
<linearGradient id="paint14_linear_657_882" x1="683.513" y1="72.2158" x2="683.513" y2="88.0384" gradientUnits="userSpaceOnUse">
<stop stop-color="white"/>
<stop offset="1" stop-color="#C5B9DD"/>
</linearGradient>
<linearGradient id="paint15_linear_657_882" x1="685.368" y1="97.0361" x2="685.368" y2="114.1" gradientUnits="userSpaceOnUse">
<stop stop-color="white"/>
<stop offset="1" stop-color="#C5B9DD"/>
</linearGradient>
<linearGradient id="paint16_linear_657_882" x1="677.299" y1="123.095" x2="677.299" y2="139.228" gradientUnits="userSpaceOnUse">
<stop stop-color="white"/>
<stop offset="1" stop-color="#C5B9DD"/>
</linearGradient>
<linearGradient id="paint17_linear_657_882" x1="616.662" y1="71.9067" x2="616.662" y2="111.773" gradientUnits="userSpaceOnUse">
<stop stop-color="white"/>
<stop offset="1" stop-color="#C5B9DD"/>
</linearGradient>
<linearGradient id="paint18_linear_657_882" x1="634.802" y1="122.475" x2="634.802" y2="139.849" gradientUnits="userSpaceOnUse">
<stop stop-color="white"/>
<stop offset="1" stop-color="#C5B9DD"/>
</linearGradient>
<linearGradient id="paint19_linear_657_882" x1="614.946" y1="92.6953" x2="614.946" y2="140.473" gradientUnits="userSpaceOnUse">
<stop stop-color="white"/>
<stop offset="1" stop-color="#C5B9DD"/>
</linearGradient>
<linearGradient id="paint20_linear_657_882" x1="540.185" y1="29.8452" x2="540.185" y2="139.54" gradientUnits="userSpaceOnUse">
<stop stop-color="white"/>
<stop offset="1" stop-color="#C5B9DD"/>
</linearGradient>
<linearGradient id="paint21_linear_657_882" x1="477.735" y1="30.3318" x2="477.735" y2="139.383" gradientUnits="userSpaceOnUse">
<stop stop-color="white"/>
<stop offset="1" stop-color="#C5B9DD"/>
</linearGradient>
<linearGradient id="paint22_linear_657_882" x1="430.365" y1="29.9138" x2="430.365" y2="142.643" gradientUnits="userSpaceOnUse">
<stop stop-color="white"/>
<stop offset="1" stop-color="#C5B9DD"/>
</linearGradient>
<linearGradient id="paint23_linear_657_882" x1="380.915" y1="31.0116" x2="384.156" y2="145.635" gradientUnits="userSpaceOnUse">
<stop stop-color="white"/>
<stop offset="1" stop-color="#C5B9DD"/>
</linearGradient>
<linearGradient id="paint24_linear_657_882" x1="316.35" y1="71.9067" x2="316.35" y2="111.773" gradientUnits="userSpaceOnUse">
<stop stop-color="white"/>
<stop offset="1" stop-color="#C5B9DD"/>
</linearGradient>
<linearGradient id="paint25_linear_657_882" x1="334.489" y1="122.475" x2="334.489" y2="139.849" gradientUnits="userSpaceOnUse">
<stop stop-color="white"/>
<stop offset="1" stop-color="#C5B9DD"/>
</linearGradient>
<linearGradient id="paint26_linear_657_882" x1="314.649" y1="92.6953" x2="314.649" y2="140.473" gradientUnits="userSpaceOnUse">
<stop stop-color="white"/>
<stop offset="1" stop-color="#C5B9DD"/>
</linearGradient>
<linearGradient id="paint27_linear_657_882" x1="245.142" y1="71.9062" x2="245.142" y2="139.85" gradientUnits="userSpaceOnUse">
<stop stop-color="white"/>
<stop offset="1" stop-color="#C5B9DD"/>
</linearGradient>
<linearGradient id="paint28_linear_657_882" x1="269.65" y1="71.5957" x2="269.65" y2="100.759" gradientUnits="userSpaceOnUse">
<stop stop-color="white"/>
<stop offset="1" stop-color="#C5B9DD"/>
</linearGradient>
<linearGradient id="paint29_linear_657_882" x1="215.585" y1="85.2482" x2="215.586" y2="72.526" gradientUnits="userSpaceOnUse">
<stop stop-color="white"/>
<stop offset="1" stop-color="#C5B9DD"/>
</linearGradient>
<linearGradient id="paint30_linear_657_882" x1="199.551" y1="72.5251" x2="199.551" y2="130.851" gradientUnits="userSpaceOnUse">
<stop stop-color="white"/>
<stop offset="1" stop-color="#C5B9DD"/>
</linearGradient>
<linearGradient id="paint31_linear_657_882" x1="200.231" y1="133.181" x2="200.231" y2="146.521" gradientUnits="userSpaceOnUse">
<stop stop-color="white"/>
<stop offset="1" stop-color="#C5B9DD"/>
</linearGradient>
<linearGradient id="paint32_linear_657_882" x1="209.007" y1="148.538" x2="209.007" y2="161.879" gradientUnits="userSpaceOnUse">
<stop stop-color="white"/>
<stop offset="1" stop-color="#C5B9DD"/>
</linearGradient>
<linearGradient id="paint33_linear_657_882" x1="39.4649" y1="110.546" x2="121.373" y2="60.6125" gradientUnits="userSpaceOnUse">
<stop stop-color="white"/>
<stop offset="1" stop-color="#C5B9DD"/>
</linearGradient>
<linearGradient id="paint34_linear_657_882" x1="88.5343" y1="36.1289" x2="88.5343" y2="131.01" gradientUnits="userSpaceOnUse">
<stop stop-color="white"/>
<stop offset="1" stop-color="#C5B9DD"/>
</linearGradient>
<linearGradient id="paint35_linear_657_882" x1="122.799" y1="111.899" x2="41.3825" y2="64.0775" gradientUnits="userSpaceOnUse">
<stop stop-color="white"/>
<stop offset="1" stop-color="#C5B9DD"/>
</linearGradient>
</defs>
</svg>
