<svg width="825" height="149" viewBox="0 0 825 149" fill="none" xmlns="http://www.w3.org/2000/svg">
<g opacity="0.6">
<path d="M1 75.9577L104.776 32.8686L199.709 135.636C199.709 135.636 470.618 44.0862 491.843 38.7925C513.068 33.4988 568.253 24.1571 568.253 24.1571C568.253 24.1571 650.7 44.0043 681.643 45.8235C712.586 47.6426 762.207 51.7474 762.207 51.7474" stroke="#7335A0" stroke-opacity="0.75" stroke-width="1.2" stroke-miterlimit="10"/>
<path d="M1 75.9575L105.631 29.5704C105.631 29.5704 209.266 121.345 212.332 121.696C215.399 122.046 470.618 56.1502 491.843 50.8565C513.068 45.5628 579.129 21.634 579.129 21.634C579.129 21.634 668.118 40.2439 695.621 41.8593C723.127 43.4768 769.036 52.9719 769.036 52.9719" stroke="#7335A0" stroke-opacity="0.75" stroke-width="1.2" stroke-miterlimit="10"/>
<path d="M1 75.9575L106.485 26.2744C106.485 26.2744 218.821 107.058 224.952 107.758C231.083 108.459 470.616 68.2166 491.841 62.9229C513.066 57.6292 590.003 19.1154 590.003 19.1154C590.003 19.1154 685.533 36.4879 709.599 37.9017C733.666 39.3175 775.865 54.205 775.865 54.205" stroke="#7335A0" stroke-opacity="0.75" stroke-width="1.2" stroke-miterlimit="10"/>
<path d="M1 75.9576L107.34 22.9764C107.34 22.9764 228.378 92.7671 237.576 93.8196C246.773 94.872 470.616 80.2829 491.841 74.9892C513.066 69.6955 600.876 16.5967 600.876 16.5967C600.876 16.5967 702.948 32.732 723.576 33.944C744.205 35.1561 782.69 55.436 782.69 55.436" stroke="#7335A0" stroke-opacity="0.75" stroke-width="1.2" stroke-miterlimit="10"/>
<path d="M1 75.9576L108.193 19.6805C108.193 19.6805 237.935 78.4806 250.197 79.8817C262.461 81.285 470.614 92.3492 491.841 87.0555C513.066 81.7618 611.752 14.0759 611.752 14.0759C611.752 14.0759 720.365 28.9739 737.555 29.9843C754.746 30.9948 789.521 56.6672 789.521 56.6672" stroke="#7335A0" stroke-opacity="0.75" stroke-width="1.2" stroke-miterlimit="10"/>
<path d="M1 75.9575L109.048 16.3823C109.048 16.3823 247.492 64.1895 262.821 65.9435C278.149 67.6976 470.616 104.415 491.841 99.1216C513.066 93.8279 622.625 11.557 622.625 11.557C622.625 11.557 737.779 25.2177 751.532 26.0265C765.284 26.8352 796.348 57.898 796.348 57.898" stroke="#7335A0" stroke-opacity="0.75" stroke-width="1.2" stroke-miterlimit="10"/>
<path d="M1 75.9576L109.903 13.0844C109.903 13.0844 257.049 49.8987 275.444 52.0036C293.839 54.1085 470.616 116.48 491.843 111.188C513.068 105.894 633.503 9.03638 633.503 9.03638C633.503 9.03638 755.2 21.4598 765.513 22.0669C775.827 22.674 803.181 59.1291 803.181 59.1291" stroke="#7335A0" stroke-opacity="0.75" stroke-width="1.2" stroke-miterlimit="10"/>
<path d="M1 75.9576L110.756 9.78847C110.756 9.78847 266.606 35.6121 288.066 38.0657C309.527 40.5213 470.616 128.546 491.841 123.254C513.066 117.961 644.377 6.5177 644.377 6.5177C644.377 6.5177 772.613 17.7038 779.489 18.1092C786.366 18.5126 810.007 60.3601 810.007 60.3601" stroke="#7335A0" stroke-opacity="0.75" stroke-width="1.2" stroke-miterlimit="10"/>
<path d="M1 75.9575L111.611 6.49023C111.611 6.49023 276.163 21.321 300.689 24.1275C325.216 26.934 470.616 140.612 491.841 135.32C513.066 130.027 655.25 3.9967 655.25 3.9967C655.25 3.9967 790.028 13.9455 793.467 14.1493C796.905 14.351 816.836 61.591 816.836 61.591" stroke="#7335A0" stroke-opacity="0.75" stroke-width="1.2" stroke-miterlimit="10"/>
<path d="M1 75.9576L112.466 3.1923C112.466 3.1923 285.72 7.03237 313.313 10.1876C340.906 13.3449 470.618 152.676 491.843 147.385C513.068 142.091 666.128 1.47607 666.128 1.47607L807.447 10.1876L823.667 62.8179" stroke="#7335A0" stroke-opacity="0.75" stroke-width="1.2" stroke-miterlimit="10"/>
</g>
</svg>
